<svg xmlns="http://www.w3.org/2000/svg" xmlns:xlink="http://www.w3.org/1999/xlink" width="2304" height="1080" viewBox="0 0 2304 1080">
  <defs>
    <radialGradient id="radial-gradient" cx="0.195" cy="0.227" r="0.478" gradientTransform="matrix(0.999, 0.033, -0.078, 2.375, 0.018, -0.319)" gradientUnits="objectBoundingBox">
      <stop offset="0" stop-color="#0f0f0f"/>
      <stop offset="1"/>
    </radialGradient>
    <filter id="Polygon_4" x="475.5" y="258.5" width="260" height="395" filterUnits="userSpaceOnUse">
      <feOffset dy="10" input="SourceAlpha"/>
      <feGaussianBlur stdDeviation="12.5" result="blur"/>
      <feFlood flood-opacity="0.161"/>
      <feComposite operator="in" in2="blur"/>
      <feComposite in="SourceGraphic"/>
    </filter>
    <filter id="Polygon_3" x="660.5" y="258.5" width="260" height="395" filterUnits="userSpaceOnUse">
      <feOffset dy="10" input="SourceAlpha"/>
      <feGaussianBlur stdDeviation="12.5" result="blur-2"/>
      <feFlood/>
      <feComposite operator="in" in2="blur-2"/>
      <feComposite in="SourceGraphic"/>
    </filter>
    <filter id="Polygon_2" x="475.5" y="258.5" width="445" height="395" filterUnits="userSpaceOnUse">
      <feOffset dy="10" input="SourceAlpha"/>
      <feGaussianBlur stdDeviation="12.5" result="blur-3"/>
      <feFlood/>
      <feComposite operator="in" in2="blur-3"/>
      <feComposite in="SourceGraphic"/>
    </filter>
    <filter id="cleopatra" x="1250.5" y="327.981" width="643" height="222" filterUnits="userSpaceOnUse">
      <feOffset dy="10" input="SourceAlpha"/>
      <feGaussianBlur stdDeviation="12.5" result="blur-4"/>
      <feFlood/>
      <feComposite operator="in" in2="blur-4"/>
      <feComposite in="SourceGraphic"/>
    </filter>
    <clipPath id="clip-Cleopatra_Banner">
      <rect width="2304" height="1080"/>
    </clipPath>
  </defs>
  <g id="Cleopatra_Banner" data-name="Cleopatra Banner" clip-path="url(#clip-Cleopatra_Banner)">
    <rect width="2304" height="1080" fill="url(#radial-gradient)"/>
    <g transform="matrix(1, 0, 0, 1, 0, 0)" filter="url(#Polygon_4)">
      <g id="Polygon_4-2" data-name="Polygon 4" transform="translate(513 286)" fill="none" stroke-linecap="round" stroke-linejoin="round">
        <path d="M76.169,56.5c4.733-16.372,27.93-16.372,32.663,0l69.89,241.781A17,17,0,0,1,162.39,320H22.61A17,17,0,0,1,6.279,298.279Z" stroke="none"/>
        <path d="M 92.50000762939453 54.218505859375 C 91.26532745361328 54.218505859375 87.13146209716797 54.58316040039063 85.77528381347656 59.27468872070313 L 15.8853759765625 301.05615234375 C 15.26864624023438 303.1897583007813 15.680419921875 305.4315490722656 17.01509094238281 307.2067565917969 C 18.34982299804688 308.9818725585938 20.38909912109375 310 22.61004638671875 310 L 162.3899230957031 310 C 164.6109161376953 310 166.6501922607422 308.9818725585938 167.9849243164063 307.2066955566406 C 169.3195953369141 305.4315490722656 169.7313690185547 303.1897583007813 169.1146392822266 301.05615234375 L 99.22468566894531 59.27468872070313 C 97.86850738525391 54.58316040039063 93.73468780517578 54.218505859375 92.50000762939453 54.218505859375 M 92.5 44.21853637695313 C 99.4825439453125 44.21853637695313 106.4650726318359 48.31161499023438 108.8313674926758 56.49774169921875 L 178.7213287353516 298.2792053222656 C 181.8638305664063 309.1504211425781 173.7062835693359 320 162.3899230957031 320 L 22.61004638671875 320 C 11.29373168945313 320 3.136184692382813 309.1504211425781 6.2786865234375 298.2792053222656 L 76.16860198974609 56.49774169921875 C 78.53491973876953 48.31161499023438 85.51746368408203 44.21853637695313 92.5 44.21853637695313 Z" stroke="none" fill="#fff"/>
      </g>
    </g>
    <g id="Polygon_5" data-name="Polygon 5" transform="translate(767.298 517.185) rotate(106)" fill="none" stroke-linecap="round" stroke-linejoin="round">
      <path d="M76.169,56.5c4.733-16.372,27.93-16.372,32.663,0l69.89,241.781A17,17,0,0,1,162.39,320H22.61A17,17,0,0,1,6.279,298.279Z" stroke="none"/>
      <path d="M 92.50000762939453 54.218505859375 C 91.26532745361328 54.218505859375 87.13146209716797 54.58316040039063 85.77528381347656 59.27468872070313 L 15.8853759765625 301.05615234375 C 15.26864624023438 303.1897583007813 15.680419921875 305.4315490722656 17.01509094238281 307.2067565917969 C 18.34982299804688 308.9818725585938 20.38909912109375 310 22.61004638671875 310 L 162.3899230957031 310 C 164.6109161376953 310 166.6501922607422 308.9818725585938 167.9849243164063 307.2066955566406 C 169.3195953369141 305.4315490722656 169.7313690185547 303.1897583007813 169.1146392822266 301.05615234375 L 99.22468566894531 59.27468872070313 C 97.86850738525391 54.58316040039063 93.73468780517578 54.218505859375 92.50000762939453 54.218505859375 M 92.5 44.21853637695313 C 99.4825439453125 44.21853637695313 106.4650726318359 48.31161499023438 108.8313674926758 56.49774169921875 L 178.7213287353516 298.2792053222656 C 181.8638305664063 309.1504211425781 173.7062835693359 320 162.3899230957031 320 L 22.61004638671875 320 C 11.29373168945313 320 3.136184692382813 309.1504211425781 6.2786865234375 298.2792053222656 L 76.16860198974609 56.49774169921875 C 78.53491973876953 48.31161499023438 85.51746368408203 44.21853637695313 92.5 44.21853637695313 Z" stroke="none" fill="#fff"/>
    </g>
    <g transform="matrix(1, 0, 0, 1, 0, 0)" filter="url(#Polygon_3)">
      <g id="Polygon_3-2" data-name="Polygon 3" transform="translate(698 286)" fill="none" stroke-linecap="round" stroke-linejoin="round">
        <path d="M76.169,56.5c4.733-16.372,27.93-16.372,32.663,0l69.89,241.781A17,17,0,0,1,162.39,320H22.61A17,17,0,0,1,6.279,298.279Z" stroke="none"/>
        <path d="M 92.50000762939453 54.218505859375 C 91.26532745361328 54.218505859375 87.13146209716797 54.58316040039063 85.77528381347656 59.27468872070313 L 15.8853759765625 301.05615234375 C 15.26864624023438 303.1897583007813 15.680419921875 305.4315490722656 17.01509094238281 307.2067565917969 C 18.34982299804688 308.9818725585938 20.38909912109375 310 22.61004638671875 310 L 162.3899230957031 310 C 164.6109161376953 310 166.6501922607422 308.9818725585938 167.9849243164063 307.2066955566406 C 169.3195953369141 305.4315490722656 169.7313690185547 303.1897583007813 169.1146392822266 301.05615234375 L 99.22468566894531 59.27468872070313 C 97.86850738525391 54.58316040039063 93.73468780517578 54.218505859375 92.50000762939453 54.218505859375 M 92.5 44.21853637695313 C 99.4825439453125 44.21853637695313 106.4650726318359 48.31161499023438 108.8313674926758 56.49774169921875 L 178.7213287353516 298.2792053222656 C 181.8638305664063 309.1504211425781 173.7062835693359 320 162.3899230957031 320 L 22.61004638671875 320 C 11.29373168945313 320 3.136184692382813 309.1504211425781 6.2786865234375 298.2792053222656 L 76.16860198974609 56.49774169921875 C 78.53491973876953 48.31161499023438 85.51746368408203 44.21853637695313 92.5 44.21853637695313 Z" stroke="none" fill="#fff"/>
      </g>
    </g>
    <g id="Polygon_6" data-name="Polygon 6" transform="translate(679.695 695.019) rotate(-106)" fill="none" stroke-linecap="round" stroke-linejoin="round">
      <path d="M76.169,56.5c4.733-16.372,27.93-16.372,32.663,0l69.89,241.781A17,17,0,0,1,162.39,320H22.61A17,17,0,0,1,6.279,298.279Z" stroke="none"/>
      <path d="M 92.50000762939453 54.21853637695313 C 91.26532745361328 54.21853637695313 87.13146209716797 54.58316040039063 85.77528381347656 59.27471923828125 L 15.8853759765625 301.05615234375 C 15.26864624023438 303.1897583007813 15.680419921875 305.4315795898438 17.01509094238281 307.2067565917969 C 18.34982299804688 308.98193359375 20.38909912109375 310.0000305175781 22.61004638671875 310.0000305175781 L 162.3899536132813 310.0000305175781 C 164.6109161376953 310.0000305175781 166.6501922607422 308.98193359375 167.9849243164063 307.2067565917969 C 169.3195953369141 305.4315795898438 169.7313690185547 303.1897583007813 169.1146392822266 301.05615234375 L 99.22468566894531 59.27471923828125 C 97.86850738525391 54.58316040039063 93.73468780517578 54.21853637695313 92.50000762939453 54.21853637695313 M 92.5 44.21856689453125 C 99.4825439453125 44.21856689453125 106.4650726318359 48.31161499023438 108.8313674926758 56.49777221679688 L 178.7213287353516 298.2792053222656 C 181.8638305664063 309.1504821777344 173.7062835693359 320.0000305175781 162.3899536132813 320.0000305175781 L 22.61004638671875 320.0000305175781 C 11.29373168945313 320.0000305175781 3.136184692382813 309.1504821777344 6.2786865234375 298.2792053222656 L 76.16860198974609 56.49777221679688 C 78.53491973876953 48.31161499023438 85.51746368408203 44.21856689453125 92.5 44.21856689453125 Z" stroke="none" fill="#fff"/>
    </g>
    <circle id="Ellipse_2" data-name="Ellipse 2" cx="23" cy="23" r="23" transform="translate(675 665)" fill="#fff"/>
    <circle id="Ellipse_3" data-name="Ellipse 3" cx="11.5" cy="11.5" r="11.5" transform="translate(802 677)" fill="#fff"/>
    <circle id="Ellipse_9" data-name="Ellipse 9" cx="11.5" cy="11.5" r="11.5" transform="translate(571 677)" fill="#fff"/>
    <circle id="Ellipse_4" data-name="Ellipse 4" cx="5.5" cy="5.5" r="5.5" transform="translate(906 683)" fill="#fff"/>
    <circle id="Ellipse_11" data-name="Ellipse 11" cx="5.5" cy="5.5" r="5.5" transform="translate(479 683)" fill="#fff"/>
    <circle id="Ellipse_8" data-name="Ellipse 8" cx="3" cy="3" r="3" transform="translate(998 686)" fill="#fff"/>
    <circle id="Ellipse_12" data-name="Ellipse 12" cx="3" cy="3" r="3" transform="translate(392 686)" fill="#fff"/>
    <g transform="matrix(1, 0, 0, 1, 0, 0)" filter="url(#Polygon_2)">
      <g id="Polygon_2-2" data-name="Polygon 2" transform="translate(513 286)" fill="none" stroke-linecap="round" stroke-linejoin="round">
        <path d="M170.282,25.457a17,17,0,0,1,29.435,0L355.253,294.491A17,17,0,0,1,340.535,320H29.465a17,17,0,0,1-14.717-25.509Z" stroke="none"/>
        <path d="M 184.9999847412109 26.96585083007813 C 183.78564453125 26.96585083007813 180.7642669677734 27.30654907226563 178.9398193359375 30.46234130859375 L 23.40447998046875 299.4965209960938 C 21.57821655273438 302.6554565429688 22.79391479492188 305.4454040527344 23.40142822265625 306.498291015625 C 24.00888061523438 307.5511169433594 25.81570434570313 310 29.464599609375 310 L 340.5353698730469 310 C 344.1842651367188 310 345.9910888671875 307.5511169433594 346.5985412597656 306.4982299804688 C 347.2060546875 305.4454040527344 348.4217529296875 302.6554565429688 346.5955505371094 299.4965209960938 L 191.0601501464844 30.46234130859375 C 189.2357025146484 27.30654907226563 186.2143249511719 26.96585083007813 184.9999847412109 26.96585083007813 M 184.9999847412109 16.9658203125 C 190.7223663330078 16.9658203125 196.4447326660156 19.79632568359375 199.7174835205078 25.457275390625 L 355.2528686523438 294.491455078125 C 361.804931640625 305.8247680664063 353.6263732910156 320 340.5353698730469 320 L 29.464599609375 320 C 16.37359619140625 320 8.195037841796875 305.8247680664063 14.74716186523438 294.491455078125 L 170.2824859619141 25.457275390625 C 173.5552368164063 19.79632568359375 179.2776031494141 16.9658203125 184.9999847412109 16.9658203125 Z" stroke="none" fill="#fff"/>
      </g>
    </g>
    <g transform="matrix(1, 0, 0, 1, 0, 0)" filter="url(#cleopatra)">
      <text id="cleopatra-2" data-name="cleopatra" transform="translate(1294 468.48)" fill="#fff" stroke="#fff" stroke-linecap="round" stroke-linejoin="round" stroke-width="6" font-size="111" font-family="Gilroy-Medium, Gilroy ☞" font-weight="500" letter-spacing="0.06em"><tspan x="0" y="0">cleopatra</tspan></text>
    </g>
    <text id="A_ChainLink_Bot_at_your_service." data-name="A ChainLink Bot at your service." transform="translate(1294 554)" fill="#fff" font-size="38" font-family="Gilroy-Light, Gilroy ☞" font-weight="300" letter-spacing="0.06em"><tspan x="0" y="0">A ChainLink Bot at your service.</tspan></text>
  </g>
</svg>
